# xmcd CD database file
#
# Track frame offsets:
#	150
#	45493
#	91723
#	126649
#	149852
#	173832
#	211388
#	252112
#
# Disc length: 3940 seconds
#
# Revision: 0
# Processed by: cddbd v1.5.2PL0 Copyright (c) Steve Scherf et al.
# Submitted via: CDex 1.70beta2
#
DISCID=740f6208
DTITLE=上原ひろみ - Spiral
DYEAR=2005
DGENRE=Jazz
TTITLE0=Spiral
TTITLE1=Music for Three-Piece-Orchestra: Open Door - Tuning - Prologue
TTITLE2=Music for Three-Piece-Orchestra: Deja vu
TTITLE3=Music for Three-Piece-Orchestra: Reverse
TTITLE4=Music for Three-Piece-Orchestra: Edge
TTITLE5=Old Castle, by the river, in the middle of a forest
TTITLE6=Love and Laughter
TTITLE7=Return of Kung-Fu World Champion
EXTD=YEAR: 2005
EXTT0=
EXTT1=
EXTT2=
EXTT3=
EXTT4=
EXTT5=
EXTT6=
EXTT7=
PLAYORDER=
